#N canvas 719 22 419 344 10;
#X obj 21 26 inlet~;
#X obj 21 276 outlet~;
#X obj 213 26 loadbang;
#X obj 21 246 tabread~ \$0-lookup;
#X obj 161 246 table \$0-lookup 3;
#X msg 213 116 \; \$1-lookup 0 0 1 0;
#X msg 213 56 bang;
#X obj 213 86 f \$0;
#X obj 21 176 /~;
#X obj 131 146 f \$2;
#X obj 131 206 + 1e-06;
#X msg 293 26 version 0.1.0;
#X obj 76 102 f \$1;
#X obj 21 146 -~;
#X obj 131 176 - \$1;
#X obj 21 206 +~ 1;
#X obj 131 25 inlet;
#X obj 76 26 inlet;
#X connect 0 0 13 0;
#X connect 2 0 6 0;
#X connect 3 0 1 0;
#X connect 6 0 7 0;
#X connect 6 0 9 0;
#X connect 6 0 12 0;
#X connect 7 0 5 0;
#X connect 8 0 15 0;
#X connect 9 0 14 0;
#X connect 10 0 8 1;
#X connect 12 0 13 1;
#X connect 13 0 8 0;
#X connect 14 0 10 0;
#X connect 15 0 3 0;
#X connect 16 0 9 0;
#X connect 17 0 12 0;
