#N canvas 391 35 384 314 10;
#X obj 23 26 inlet~;
#X obj 23 243 outlet~;
#X obj 161 26 loadbang;
#X obj 23 206 tabread~ \$0-lookup;
#X obj 161 176 table \$0-lookup 2;
#X obj 161 106 f \$0;
#X msg 161 56 bang;
#X msg 251 26 version 0.1.0;
#X obj 89 85 f \$1;
#X obj 23 176 -~;
#X msg 161 136 \; \$1-lookup 0 0 1;
#X obj 89 145 - 1;
#X obj 89 115 + 1e-06;
#X obj 89 26 inlet;
#X connect 0 0 9 0;
#X connect 2 0 6 0;
#X connect 3 0 1 0;
#X connect 5 0 10 0;
#X connect 6 0 5 0;
#X connect 6 0 8 0;
#X connect 8 0 12 0;
#X connect 9 0 3 0;
#X connect 11 0 9 1;
#X connect 12 0 11 0;
#X connect 13 0 8 0;
