#N canvas 406 176 450 300 10;
#X obj 87 66 inlet~;
#X obj 87 211 outlet~;
#X obj 86 138 -~ 1;
#X obj 87 169 max~ 0;
#X obj 139 65 inlet;
#X obj 200 65 inlet;
#X obj 86 103 gt~ \$1;
#X obj 154 102 lt~ \$2;
#X connect 0 0 6 0;
#X connect 0 0 7 0;
#X connect 2 0 3 0;
#X connect 3 0 1 0;
#X connect 4 0 6 1;
#X connect 5 0 7 1;
#X connect 6 0 2 0;
#X connect 7 0 2 0;
