#N canvas 368 92 482 332 10;
#X obj 71 235 snapshot~;
#X obj 281 175 loadbang;
#X floatatom 71 275 9 0 0 0 - - -;
#X floatatom 71 75 5 0 0 0 - - -;
#X obj 71 105 sig~;
#X msg 29 28 -1;
#X msg 69 28 -0.99;
#X obj 281 205 metro 100;
#X obj 181 235 snapshot~;
#X floatatom 181 275 9 0 0 0 - - -;
#X obj 181 135 lt~ 3;
#X obj 71 135 gt~ -1;
#X msg 139 28 2.9;
#X msg 179 28 3;
#X connect 0 0 2 0;
#X connect 1 0 7 0;
#X connect 3 0 4 0;
#X connect 4 0 10 0;
#X connect 4 0 11 0;
#X connect 5 0 3 0;
#X connect 6 0 3 0;
#X connect 7 0 0 0;
#X connect 7 0 8 0;
#X connect 8 0 9 0;
#X connect 10 0 8 0;
#X connect 11 0 0 0;
#X connect 12 0 3 0;
#X connect 13 0 3 0;
